<svg xmlns="http://www.w3.org/2000/svg" viewBox="0 0 512 512" role="img" aria-label="Quran Lens">
  <defs>
    <linearGradient id="bg" x1="88" y1="72" x2="424" y2="440" gradientUnits="userSpaceOnUse">
      <stop offset="0" stop-color="#0B3B36"/>
      <stop offset="0.54" stop-color="#123C69"/>
      <stop offset="1" stop-color="#4A2F7A"/>
    </linearGradient>
    <linearGradient id="gold" x1="148" y1="138" x2="356" y2="376" gradientUnits="userSpaceOnUse">
      <stop offset="0" stop-color="#F7DFA4"/>
      <stop offset="1" stop-color="#C49A49"/>
    </linearGradient>
  </defs>
  <rect width="512" height="512" rx="108" fill="url(#bg)"/>
  <path d="M142 177c0-27 22-49 49-49h130c27 0 49 22 49 49v194c0 8-9 13-16 8l-35-23c-8-5-19-8-29-8H191c-27 0-49-22-49-49V177Z" fill="#F8F3E7"/>
  <path d="M184 174c0-10 8-18 18-18h108c10 0 18 8 18 18v144c0 6-7 10-12 6l-25-16c-7-5-16-7-25-7h-64c-10 0-18-8-18-18V174Z" fill="#102E46"/>
  <path d="M216 198h80M216 230h80M216 262h52" stroke="url(#gold)" stroke-width="15" stroke-linecap="round"/>
  <circle cx="323" cy="328" r="52" fill="none" stroke="url(#gold)" stroke-width="24"/>
  <path d="m360 365 47 47" stroke="url(#gold)" stroke-width="28" stroke-linecap="round"/>
</svg>
